<mxfile host="65bd71144e">
    <diagram id="kdcc8JVmQqpFeqGUEapT" name="Page-1">
        <mxGraphModel dx="1060" dy="857" grid="1" gridSize="10" guides="1" tooltips="1" connect="1" arrows="1" fold="1" page="1" pageScale="1" pageWidth="1169" pageHeight="827" math="0" shadow="0">
            <root>
                <mxCell id="0"/>
                <mxCell id="1" parent="0"/>
                <mxCell id="28" value="user" style="swimlane;fontStyle=0;childLayout=stackLayout;horizontal=1;startSize=26;horizontalStack=0;resizeParent=1;resizeParentMax=0;resizeLast=0;collapsible=1;marginBottom=0;align=center;fontSize=14;" parent="1" vertex="1">
                    <mxGeometry x="40" y="82" width="160" height="206" as="geometry"/>
                </mxCell>
                <mxCell id="29" value="id" style="text;strokeColor=none;fillColor=none;spacingLeft=4;spacingRight=4;overflow=hidden;rotatable=0;points=[[0,0.5],[1,0.5]];portConstraint=eastwest;fontSize=12;" parent="28" vertex="1">
                    <mxGeometry y="26" width="160" height="30" as="geometry"/>
                </mxCell>
                <mxCell id="30" value="username" style="text;strokeColor=none;fillColor=none;spacingLeft=4;spacingRight=4;overflow=hidden;rotatable=0;points=[[0,0.5],[1,0.5]];portConstraint=eastwest;fontSize=12;" parent="28" vertex="1">
                    <mxGeometry y="56" width="160" height="30" as="geometry"/>
                </mxCell>
                <mxCell id="43" value="password" style="text;strokeColor=none;fillColor=none;spacingLeft=4;spacingRight=4;overflow=hidden;rotatable=0;points=[[0,0.5],[1,0.5]];portConstraint=eastwest;fontSize=12;" parent="28" vertex="1">
                    <mxGeometry y="86" width="160" height="30" as="geometry"/>
                </mxCell>
                <mxCell id="44" value="name" style="text;strokeColor=none;fillColor=none;spacingLeft=4;spacingRight=4;overflow=hidden;rotatable=0;points=[[0,0.5],[1,0.5]];portConstraint=eastwest;fontSize=12;" parent="28" vertex="1">
                    <mxGeometry y="116" width="160" height="30" as="geometry"/>
                </mxCell>
                <mxCell id="45" value="created_at" style="text;strokeColor=none;fillColor=none;spacingLeft=4;spacingRight=4;overflow=hidden;rotatable=0;points=[[0,0.5],[1,0.5]];portConstraint=eastwest;fontSize=12;" parent="28" vertex="1">
                    <mxGeometry y="146" width="160" height="30" as="geometry"/>
                </mxCell>
                <mxCell id="31" value="updated_at" style="text;strokeColor=none;fillColor=none;spacingLeft=4;spacingRight=4;overflow=hidden;rotatable=0;points=[[0,0.5],[1,0.5]];portConstraint=eastwest;fontSize=12;" parent="28" vertex="1">
                    <mxGeometry y="176" width="160" height="30" as="geometry"/>
                </mxCell>
                <mxCell id="46" value="newsÂ " style="swimlane;fontStyle=0;childLayout=stackLayout;horizontal=1;startSize=26;horizontalStack=0;resizeParent=1;resizeParentMax=0;resizeLast=0;collapsible=1;marginBottom=0;align=center;fontSize=14;" parent="1" vertex="1">
                    <mxGeometry x="280" y="82" width="160" height="266" as="geometry"/>
                </mxCell>
                <mxCell id="47" value="id" style="text;strokeColor=none;fillColor=none;spacingLeft=4;spacingRight=4;overflow=hidden;rotatable=0;points=[[0,0.5],[1,0.5]];portConstraint=eastwest;fontSize=12;" parent="46" vertex="1">
                    <mxGeometry y="26" width="160" height="30" as="geometry"/>
                </mxCell>
                <mxCell id="48" value="user_id" style="text;strokeColor=none;fillColor=none;spacingLeft=4;spacingRight=4;overflow=hidden;rotatable=0;points=[[0,0.5],[1,0.5]];portConstraint=eastwest;fontSize=12;" parent="46" vertex="1">
                    <mxGeometry y="56" width="160" height="30" as="geometry"/>
                </mxCell>
                <mxCell id="70" value="" style="endArrow=ERzeroToMany;html=1;rounded=0;startArrow=ERone;startFill=0;endFill=0;" parent="46" edge="1">
                    <mxGeometry relative="1" as="geometry">
                        <mxPoint x="-80" y="80" as="sourcePoint"/>
                        <mxPoint y="80" as="targetPoint"/>
                    </mxGeometry>
                </mxCell>
                <mxCell id="50" value="slug" style="text;strokeColor=none;fillColor=none;spacingLeft=4;spacingRight=4;overflow=hidden;rotatable=0;points=[[0,0.5],[1,0.5]];portConstraint=eastwest;fontSize=12;" parent="46" vertex="1">
                    <mxGeometry y="86" width="160" height="30" as="geometry"/>
                </mxCell>
                <mxCell id="9U2Wlga8DC7qnTpubYpR-180" value="date" style="text;strokeColor=none;fillColor=none;spacingLeft=4;spacingRight=4;overflow=hidden;rotatable=0;points=[[0,0.5],[1,0.5]];portConstraint=eastwest;fontSize=12;" parent="46" vertex="1">
                    <mxGeometry y="116" width="160" height="30" as="geometry"/>
                </mxCell>
                <mxCell id="49" value="title" style="text;strokeColor=none;fillColor=none;spacingLeft=4;spacingRight=4;overflow=hidden;rotatable=0;points=[[0,0.5],[1,0.5]];portConstraint=eastwest;fontSize=12;" parent="46" vertex="1">
                    <mxGeometry y="146" width="160" height="30" as="geometry"/>
                </mxCell>
                <mxCell id="55" value="body" style="text;strokeColor=none;fillColor=none;spacingLeft=4;spacingRight=4;overflow=hidden;rotatable=0;points=[[0,0.5],[1,0.5]];portConstraint=eastwest;fontSize=12;" parent="46" vertex="1">
                    <mxGeometry y="176" width="160" height="30" as="geometry"/>
                </mxCell>
                <mxCell id="51" value="created_at" style="text;strokeColor=none;fillColor=none;spacingLeft=4;spacingRight=4;overflow=hidden;rotatable=0;points=[[0,0.5],[1,0.5]];portConstraint=eastwest;fontSize=12;" parent="46" vertex="1">
                    <mxGeometry y="206" width="160" height="30" as="geometry"/>
                </mxCell>
                <mxCell id="52" value="updated_at" style="text;strokeColor=none;fillColor=none;spacingLeft=4;spacingRight=4;overflow=hidden;rotatable=0;points=[[0,0.5],[1,0.5]];portConstraint=eastwest;fontSize=12;" parent="46" vertex="1">
                    <mxGeometry y="236" width="160" height="30" as="geometry"/>
                </mxCell>
                <mxCell id="57" value="newscategories" style="swimlane;fontStyle=0;childLayout=stackLayout;horizontal=1;startSize=26;horizontalStack=0;resizeParent=1;resizeParentMax=0;resizeLast=0;collapsible=1;marginBottom=0;align=center;fontSize=14;" parent="1" vertex="1">
                    <mxGeometry x="760" y="82" width="160" height="146" as="geometry"/>
                </mxCell>
                <mxCell id="58" value="id" style="text;strokeColor=none;fillColor=none;spacingLeft=4;spacingRight=4;overflow=hidden;rotatable=0;points=[[0,0.5],[1,0.5]];portConstraint=eastwest;fontSize=12;" parent="57" vertex="1">
                    <mxGeometry y="26" width="160" height="30" as="geometry"/>
                </mxCell>
                <mxCell id="60" value="title" style="text;strokeColor=none;fillColor=none;spacingLeft=4;spacingRight=4;overflow=hidden;rotatable=0;points=[[0,0.5],[1,0.5]];portConstraint=eastwest;fontSize=12;" parent="57" vertex="1">
                    <mxGeometry y="56" width="160" height="30" as="geometry"/>
                </mxCell>
                <mxCell id="63" value="created_at" style="text;strokeColor=none;fillColor=none;spacingLeft=4;spacingRight=4;overflow=hidden;rotatable=0;points=[[0,0.5],[1,0.5]];portConstraint=eastwest;fontSize=12;" parent="57" vertex="1">
                    <mxGeometry y="86" width="160" height="30" as="geometry"/>
                </mxCell>
                <mxCell id="64" value="updated_at" style="text;strokeColor=none;fillColor=none;spacingLeft=4;spacingRight=4;overflow=hidden;rotatable=0;points=[[0,0.5],[1,0.5]];portConstraint=eastwest;fontSize=12;" parent="57" vertex="1">
                    <mxGeometry y="116" width="160" height="30" as="geometry"/>
                </mxCell>
                <mxCell id="65" value="newscategories_news" style="swimlane;fontStyle=0;childLayout=stackLayout;horizontal=1;startSize=26;horizontalStack=0;resizeParent=1;resizeParentMax=0;resizeLast=0;collapsible=1;marginBottom=0;align=center;fontSize=14;" parent="1" vertex="1">
                    <mxGeometry x="520" y="82" width="160" height="116" as="geometry"/>
                </mxCell>
                <mxCell id="66" value="id" style="text;strokeColor=none;fillColor=none;spacingLeft=4;spacingRight=4;overflow=hidden;rotatable=0;points=[[0,0.5],[1,0.5]];portConstraint=eastwest;fontSize=12;" parent="65" vertex="1">
                    <mxGeometry y="26" width="160" height="30" as="geometry"/>
                </mxCell>
                <mxCell id="67" value="newscategory_id" style="text;strokeColor=none;fillColor=none;spacingLeft=4;spacingRight=4;overflow=hidden;rotatable=0;points=[[0,0.5],[1,0.5]];portConstraint=eastwest;fontSize=12;" parent="65" vertex="1">
                    <mxGeometry y="56" width="160" height="30" as="geometry"/>
                </mxCell>
                <mxCell id="68" value="new_id" style="text;strokeColor=none;fillColor=none;spacingLeft=4;spacingRight=4;overflow=hidden;rotatable=0;points=[[0,0.5],[1,0.5]];portConstraint=eastwest;fontSize=12;" parent="65" vertex="1">
                    <mxGeometry y="86" width="160" height="30" as="geometry"/>
                </mxCell>
                <mxCell id="76" value="" style="endArrow=ERoneToMany;html=1;rounded=0;startArrow=ERone;startFill=0;endFill=0;" parent="1" edge="1">
                    <mxGeometry relative="1" as="geometry">
                        <mxPoint x="440" y="158.55" as="sourcePoint"/>
                        <mxPoint x="520" y="158.55" as="targetPoint"/>
                    </mxGeometry>
                </mxCell>
                <mxCell id="78" value="" style="endArrow=ERone;html=1;rounded=0;startArrow=ERzeroToMany;startFill=0;endFill=0;" parent="1" edge="1">
                    <mxGeometry relative="1" as="geometry">
                        <mxPoint x="680" y="160.26999999999995" as="sourcePoint"/>
                        <mxPoint x="760" y="160.26999999999995" as="targetPoint"/>
                    </mxGeometry>
                </mxCell>
                <mxCell id="80" value="ã¦ã¼ã¶ã¼01ã¯ãã¥ã¼ã¹ã0ãâåä½ã" style="text;html=1;strokeColor=none;fillColor=none;align=left;verticalAlign=middle;whiteSpace=wrap;rounded=0;fontSize=10;" parent="1" vertex="1">
                    <mxGeometry x="40" y="42" width="200" height="30" as="geometry"/>
                </mxCell>
                <mxCell id="81" value="ãã¥ã¼ã¹ã¯ã¤ããããã¦ã¼ã¶ã¼IDãæã¤&lt;br&gt;1ã¤ã®ãã¥ã¼ã¹ã«ã¯è¤æ°ã®ã«ãã´ãªãå­å¨" style="text;html=1;strokeColor=none;fillColor=none;align=left;verticalAlign=middle;whiteSpace=wrap;rounded=0;fontSize=10;" parent="1" vertex="1">
                    <mxGeometry x="280" y="42" width="200" height="30" as="geometry"/>
                </mxCell>
                <mxCell id="178" value="1ã¤ã®ã«ãã´ãªã«ã¯è¤æ°ã®ãã¥ã¼ã¹ãããããªãã" style="text;html=1;strokeColor=none;fillColor=none;align=left;verticalAlign=middle;whiteSpace=wrap;rounded=0;fontSize=10;" parent="1" vertex="1">
                    <mxGeometry x="760" y="42" width="200" height="30" as="geometry"/>
                </mxCell>
                <mxCell id="H9qHvP96Ang9gYt4fTjs-178" value="menus" style="swimlane;fontStyle=0;childLayout=stackLayout;horizontal=1;startSize=26;horizontalStack=0;resizeParent=1;resizeParentMax=0;resizeLast=0;collapsible=1;marginBottom=0;align=center;fontSize=14;" parent="1" vertex="1">
                    <mxGeometry x="280" y="400" width="160" height="296" as="geometry"/>
                </mxCell>
                <mxCell id="H9qHvP96Ang9gYt4fTjs-179" value="id" style="text;strokeColor=none;fillColor=none;spacingLeft=4;spacingRight=4;overflow=hidden;rotatable=0;points=[[0,0.5],[1,0.5]];portConstraint=eastwest;fontSize=12;" parent="H9qHvP96Ang9gYt4fTjs-178" vertex="1">
                    <mxGeometry y="26" width="160" height="30" as="geometry"/>
                </mxCell>
                <mxCell id="H9qHvP96Ang9gYt4fTjs-180" value="user_id" style="text;strokeColor=none;fillColor=none;spacingLeft=4;spacingRight=4;overflow=hidden;rotatable=0;points=[[0,0.5],[1,0.5]];portConstraint=eastwest;fontSize=12;" parent="H9qHvP96Ang9gYt4fTjs-178" vertex="1">
                    <mxGeometry y="56" width="160" height="30" as="geometry"/>
                </mxCell>
                <mxCell id="H9qHvP96Ang9gYt4fTjs-187" value="menucategory_id" style="text;strokeColor=none;fillColor=none;spacingLeft=4;spacingRight=4;overflow=hidden;rotatable=0;points=[[0,0.5],[1,0.5]];portConstraint=eastwest;fontSize=12;" parent="H9qHvP96Ang9gYt4fTjs-178" vertex="1">
                    <mxGeometry y="86" width="160" height="30" as="geometry"/>
                </mxCell>
                <mxCell id="H9qHvP96Ang9gYt4fTjs-181" value="" style="endArrow=ERzeroToMany;html=1;rounded=0;startArrow=ERone;startFill=0;endFill=0;edgeStyle=elbowEdgeStyle;exitX=0.504;exitY=1.022;exitDx=0;exitDy=0;exitPerimeter=0;" parent="H9qHvP96Ang9gYt4fTjs-178" source="31" edge="1">
                    <mxGeometry relative="1" as="geometry">
                        <mxPoint x="-80" y="80" as="sourcePoint"/>
                        <mxPoint y="80" as="targetPoint"/>
                        <Array as="points">
                            <mxPoint x="-159" y="70"/>
                        </Array>
                    </mxGeometry>
                </mxCell>
                <mxCell id="H9qHvP96Ang9gYt4fTjs-183" value="slug" style="text;strokeColor=none;fillColor=none;spacingLeft=4;spacingRight=4;overflow=hidden;rotatable=0;points=[[0,0.5],[1,0.5]];portConstraint=eastwest;fontSize=12;" parent="H9qHvP96Ang9gYt4fTjs-178" vertex="1">
                    <mxGeometry y="116" width="160" height="30" as="geometry"/>
                </mxCell>
                <mxCell id="H9qHvP96Ang9gYt4fTjs-182" value="title" style="text;strokeColor=none;fillColor=none;spacingLeft=4;spacingRight=4;overflow=hidden;rotatable=0;points=[[0,0.5],[1,0.5]];portConstraint=eastwest;fontSize=12;" parent="H9qHvP96Ang9gYt4fTjs-178" vertex="1">
                    <mxGeometry y="146" width="160" height="30" as="geometry"/>
                </mxCell>
                <mxCell id="9U2Wlga8DC7qnTpubYpR-181" value="price" style="text;strokeColor=none;fillColor=none;spacingLeft=4;spacingRight=4;overflow=hidden;rotatable=0;points=[[0,0.5],[1,0.5]];portConstraint=eastwest;fontSize=12;" parent="H9qHvP96Ang9gYt4fTjs-178" vertex="1">
                    <mxGeometry y="176" width="160" height="30" as="geometry"/>
                </mxCell>
                <mxCell id="H9qHvP96Ang9gYt4fTjs-184" value="body" style="text;strokeColor=none;fillColor=none;spacingLeft=4;spacingRight=4;overflow=hidden;rotatable=0;points=[[0,0.5],[1,0.5]];portConstraint=eastwest;fontSize=12;" parent="H9qHvP96Ang9gYt4fTjs-178" vertex="1">
                    <mxGeometry y="206" width="160" height="30" as="geometry"/>
                </mxCell>
                <mxCell id="H9qHvP96Ang9gYt4fTjs-185" value="created_at" style="text;strokeColor=none;fillColor=none;spacingLeft=4;spacingRight=4;overflow=hidden;rotatable=0;points=[[0,0.5],[1,0.5]];portConstraint=eastwest;fontSize=12;" parent="H9qHvP96Ang9gYt4fTjs-178" vertex="1">
                    <mxGeometry y="236" width="160" height="30" as="geometry"/>
                </mxCell>
                <mxCell id="H9qHvP96Ang9gYt4fTjs-186" value="updated_at" style="text;strokeColor=none;fillColor=none;spacingLeft=4;spacingRight=4;overflow=hidden;rotatable=0;points=[[0,0.5],[1,0.5]];portConstraint=eastwest;fontSize=12;" parent="H9qHvP96Ang9gYt4fTjs-178" vertex="1">
                    <mxGeometry y="266" width="160" height="30" as="geometry"/>
                </mxCell>
                <mxCell id="H9qHvP96Ang9gYt4fTjs-188" value="menucategories" style="swimlane;fontStyle=0;childLayout=stackLayout;horizontal=1;startSize=26;horizontalStack=0;resizeParent=1;resizeParentMax=0;resizeLast=0;collapsible=1;marginBottom=0;align=center;fontSize=14;" parent="1" vertex="1">
                    <mxGeometry x="520" y="400" width="160" height="146" as="geometry"/>
                </mxCell>
                <mxCell id="H9qHvP96Ang9gYt4fTjs-189" value="id" style="text;strokeColor=none;fillColor=none;spacingLeft=4;spacingRight=4;overflow=hidden;rotatable=0;points=[[0,0.5],[1,0.5]];portConstraint=eastwest;fontSize=12;" parent="H9qHvP96Ang9gYt4fTjs-188" vertex="1">
                    <mxGeometry y="26" width="160" height="30" as="geometry"/>
                </mxCell>
                <mxCell id="H9qHvP96Ang9gYt4fTjs-190" value="title" style="text;strokeColor=none;fillColor=none;spacingLeft=4;spacingRight=4;overflow=hidden;rotatable=0;points=[[0,0.5],[1,0.5]];portConstraint=eastwest;fontSize=12;" parent="H9qHvP96Ang9gYt4fTjs-188" vertex="1">
                    <mxGeometry y="56" width="160" height="30" as="geometry"/>
                </mxCell>
                <mxCell id="H9qHvP96Ang9gYt4fTjs-191" value="created_at" style="text;strokeColor=none;fillColor=none;spacingLeft=4;spacingRight=4;overflow=hidden;rotatable=0;points=[[0,0.5],[1,0.5]];portConstraint=eastwest;fontSize=12;" parent="H9qHvP96Ang9gYt4fTjs-188" vertex="1">
                    <mxGeometry y="86" width="160" height="30" as="geometry"/>
                </mxCell>
                <mxCell id="H9qHvP96Ang9gYt4fTjs-192" value="updated_at" style="text;strokeColor=none;fillColor=none;spacingLeft=4;spacingRight=4;overflow=hidden;rotatable=0;points=[[0,0.5],[1,0.5]];portConstraint=eastwest;fontSize=12;" parent="H9qHvP96Ang9gYt4fTjs-188" vertex="1">
                    <mxGeometry y="116" width="160" height="30" as="geometry"/>
                </mxCell>
                <mxCell id="H9qHvP96Ang9gYt4fTjs-193" value="" style="endArrow=ERone;html=1;rounded=0;startArrow=ERzeroToMany;startFill=0;endFill=0;" parent="1" edge="1">
                    <mxGeometry relative="1" as="geometry">
                        <mxPoint x="440" y="479.99999999999994" as="sourcePoint"/>
                        <mxPoint x="520" y="479.99999999999994" as="targetPoint"/>
                    </mxGeometry>
                </mxCell>
                <mxCell id="H9qHvP96Ang9gYt4fTjs-195" value="ã¡ãã¥ã¼ã¯ã¤ããããã¦ã¼ã¶ã¼IDãæã¤&lt;br&gt;1ã¤ã®ã¡ãã¥ã¼ã«ã¯1ã¤ã®ã«ãã´ãªãå­å¨" style="text;html=1;strokeColor=none;fillColor=none;align=left;verticalAlign=middle;whiteSpace=wrap;rounded=0;fontSize=10;" parent="1" vertex="1">
                    <mxGeometry x="280" y="360" width="200" height="30" as="geometry"/>
                </mxCell>
                <mxCell id="H9qHvP96Ang9gYt4fTjs-196" value="1ã¤ã®ã«ãã´ãªã«ã¯è¤æ°ã®ã¡ãã¥ã¼ãããããªãã" style="text;html=1;strokeColor=none;fillColor=none;align=left;verticalAlign=middle;whiteSpace=wrap;rounded=0;fontSize=10;" parent="1" vertex="1">
                    <mxGeometry x="520" y="360" width="200" height="30" as="geometry"/>
                </mxCell>
            </root>
        </mxGraphModel>
    </diagram>
    <diagram id="ikfWCYnNcNKLLfthWZx-" name="Page-2">
        <mxGraphModel dx="1060" dy="857" grid="1" gridSize="10" guides="1" tooltips="1" connect="1" arrows="1" fold="1" page="1" pageScale="1" pageWidth="1169" pageHeight="827" math="0" shadow="0">
            <root>
                <mxCell id="5RBKL91T9zg0o027TH-Y-0"/>
                <mxCell id="5RBKL91T9zg0o027TH-Y-1" parent="5RBKL91T9zg0o027TH-Y-0"/>
                <mxCell id="dF7GDVKlNf8g9HDKJQfL-7" style="edgeStyle=orthogonalEdgeStyle;html=1;exitX=1;exitY=0.25;exitDx=0;exitDy=0;entryX=0;entryY=0.25;entryDx=0;entryDy=0;fontSize=10;startArrow=none;startFill=0;endArrow=none;endFill=0;" parent="5RBKL91T9zg0o027TH-Y-1" source="5RBKL91T9zg0o027TH-Y-4" target="5RBKL91T9zg0o027TH-Y-8" edge="1">
                    <mxGeometry relative="1" as="geometry"/>
                </mxCell>
                <mxCell id="5RBKL91T9zg0o027TH-Y-4" value="ããã" style="swimlane;fontStyle=0;childLayout=stackLayout;horizontal=1;startSize=26;horizontalStack=0;resizeParent=1;resizeParentMax=0;resizeLast=0;collapsible=1;marginBottom=0;align=center;fontSize=14;" parent="5RBKL91T9zg0o027TH-Y-1" vertex="1">
                    <mxGeometry x="40" y="40" width="160" height="56" as="geometry"/>
                </mxCell>
                <mxCell id="5RBKL91T9zg0o027TH-Y-5" value="/" style="text;strokeColor=none;fillColor=none;spacingLeft=4;spacingRight=4;overflow=hidden;rotatable=0;points=[[0,0.5],[1,0.5]];portConstraint=eastwest;fontSize=12;" parent="5RBKL91T9zg0o027TH-Y-4" vertex="1">
                    <mxGeometry y="26" width="160" height="30" as="geometry"/>
                </mxCell>
                <mxCell id="5RBKL91T9zg0o027TH-Y-8" value="ãã¥ã¼ã¹ä¸è¦§" style="swimlane;fontStyle=0;childLayout=stackLayout;horizontal=1;startSize=26;horizontalStack=0;resizeParent=1;resizeParentMax=0;resizeLast=0;collapsible=1;marginBottom=0;align=center;fontSize=14;" parent="5RBKL91T9zg0o027TH-Y-1" vertex="1">
                    <mxGeometry x="280" y="40" width="160" height="56" as="geometry"/>
                </mxCell>
                <mxCell id="5RBKL91T9zg0o027TH-Y-9" value="/news" style="text;strokeColor=none;fillColor=none;spacingLeft=4;spacingRight=4;overflow=hidden;rotatable=0;points=[[0,0.5],[1,0.5]];portConstraint=eastwest;fontSize=12;" parent="5RBKL91T9zg0o027TH-Y-8" vertex="1">
                    <mxGeometry y="26" width="160" height="30" as="geometry"/>
                </mxCell>
                <mxCell id="dF7GDVKlNf8g9HDKJQfL-9" style="rounded=0;html=1;exitX=0;exitY=0.25;exitDx=0;exitDy=0;entryX=1;entryY=0.25;entryDx=0;entryDy=0;fontSize=10;startArrow=none;startFill=0;endArrow=none;endFill=0;" parent="5RBKL91T9zg0o027TH-Y-1" source="5RBKL91T9zg0o027TH-Y-10" target="5RBKL91T9zg0o027TH-Y-8" edge="1">
                    <mxGeometry relative="1" as="geometry"/>
                </mxCell>
                <mxCell id="5RBKL91T9zg0o027TH-Y-10" value="ãã¥ã¼ã¹è©³ç´°" style="swimlane;fontStyle=0;childLayout=stackLayout;horizontal=1;startSize=26;horizontalStack=0;resizeParent=1;resizeParentMax=0;resizeLast=0;collapsible=1;marginBottom=0;align=center;fontSize=14;" parent="5RBKL91T9zg0o027TH-Y-1" vertex="1">
                    <mxGeometry x="520" y="40" width="160" height="56" as="geometry"/>
                </mxCell>
                <mxCell id="5RBKL91T9zg0o027TH-Y-11" value="/news/XXX" style="text;strokeColor=none;fillColor=none;spacingLeft=4;spacingRight=4;overflow=hidden;rotatable=0;points=[[0,0.5],[1,0.5]];portConstraint=eastwest;fontSize=12;" parent="5RBKL91T9zg0o027TH-Y-10" vertex="1">
                    <mxGeometry y="26" width="160" height="30" as="geometry"/>
                </mxCell>
                <mxCell id="dF7GDVKlNf8g9HDKJQfL-8" style="edgeStyle=orthogonalEdgeStyle;html=1;exitX=0;exitY=0.25;exitDx=0;exitDy=0;entryX=1;entryY=0.25;entryDx=0;entryDy=0;fontSize=10;startArrow=none;startFill=0;endArrow=none;endFill=0;rounded=0;" parent="5RBKL91T9zg0o027TH-Y-1" source="dF7GDVKlNf8g9HDKJQfL-0" target="5RBKL91T9zg0o027TH-Y-4" edge="1">
                    <mxGeometry relative="1" as="geometry"/>
                </mxCell>
                <mxCell id="dF7GDVKlNf8g9HDKJQfL-0" value="ã¡ãã¥ã¼ä¸è¦§" style="swimlane;fontStyle=0;childLayout=stackLayout;horizontal=1;startSize=26;horizontalStack=0;resizeParent=1;resizeParentMax=0;resizeLast=0;collapsible=1;marginBottom=0;align=center;fontSize=14;" parent="5RBKL91T9zg0o027TH-Y-1" vertex="1">
                    <mxGeometry x="280" y="160" width="160" height="56" as="geometry"/>
                </mxCell>
                <mxCell id="dF7GDVKlNf8g9HDKJQfL-1" value="/menus" style="text;strokeColor=none;fillColor=none;spacingLeft=4;spacingRight=4;overflow=hidden;rotatable=0;points=[[0,0.5],[1,0.5]];portConstraint=eastwest;fontSize=12;" parent="dF7GDVKlNf8g9HDKJQfL-0" vertex="1">
                    <mxGeometry y="26" width="160" height="30" as="geometry"/>
                </mxCell>
                <mxCell id="niDnBnYqPfuyKYtPvyMj-0" value="ã­ã°ã¤ã³ç»é¢" style="swimlane;fontStyle=0;childLayout=stackLayout;horizontal=1;startSize=26;horizontalStack=0;resizeParent=1;resizeParentMax=0;resizeLast=0;collapsible=1;marginBottom=0;align=center;fontSize=14;" parent="5RBKL91T9zg0o027TH-Y-1" vertex="1">
                    <mxGeometry x="280" y="320" width="160" height="56" as="geometry"/>
                </mxCell>
                <mxCell id="niDnBnYqPfuyKYtPvyMj-1" value="/login" style="text;strokeColor=none;fillColor=none;spacingLeft=4;spacingRight=4;overflow=hidden;rotatable=0;points=[[0,0.5],[1,0.5]];portConstraint=eastwest;fontSize=12;" parent="niDnBnYqPfuyKYtPvyMj-0" vertex="1">
                    <mxGeometry y="26" width="160" height="30" as="geometry"/>
                </mxCell>
                <mxCell id="niDnBnYqPfuyKYtPvyMj-2" value="ç®¡çç»é¢ããã" style="swimlane;fontStyle=0;childLayout=stackLayout;horizontal=1;startSize=26;horizontalStack=0;resizeParent=1;resizeParentMax=0;resizeLast=0;collapsible=1;marginBottom=0;align=center;fontSize=14;" parent="5RBKL91T9zg0o027TH-Y-1" vertex="1">
                    <mxGeometry x="520" y="320" width="160" height="56" as="geometry"/>
                </mxCell>
                <mxCell id="niDnBnYqPfuyKYtPvyMj-3" value="/admin" style="text;strokeColor=none;fillColor=none;spacingLeft=4;spacingRight=4;overflow=hidden;rotatable=0;points=[[0,0.5],[1,0.5]];portConstraint=eastwest;fontSize=12;" parent="niDnBnYqPfuyKYtPvyMj-2" vertex="1">
                    <mxGeometry y="26" width="160" height="30" as="geometry"/>
                </mxCell>
                <mxCell id="niDnBnYqPfuyKYtPvyMj-4" value="ãã¥ã¼ã¹ä¸è¦§" style="swimlane;fontStyle=0;childLayout=stackLayout;horizontal=1;startSize=26;horizontalStack=0;resizeParent=1;resizeParentMax=0;resizeLast=0;collapsible=1;marginBottom=0;align=center;fontSize=14;" parent="5RBKL91T9zg0o027TH-Y-1" vertex="1">
                    <mxGeometry x="760" y="320" width="160" height="56" as="geometry"/>
                </mxCell>
                <mxCell id="niDnBnYqPfuyKYtPvyMj-5" value="/admin/news" style="text;strokeColor=none;fillColor=none;spacingLeft=4;spacingRight=4;overflow=hidden;rotatable=0;points=[[0,0.5],[1,0.5]];portConstraint=eastwest;fontSize=12;" parent="niDnBnYqPfuyKYtPvyMj-4" vertex="1">
                    <mxGeometry y="26" width="160" height="30" as="geometry"/>
                </mxCell>
                <mxCell id="Dd8_O6OpmOd4A60IJ_7j-0" value="ã¡ãã¥ã¼ä¸è¦§" style="swimlane;fontStyle=0;childLayout=stackLayout;horizontal=1;startSize=26;horizontalStack=0;resizeParent=1;resizeParentMax=0;resizeLast=0;collapsible=1;marginBottom=0;align=center;fontSize=14;" parent="5RBKL91T9zg0o027TH-Y-1" vertex="1">
                    <mxGeometry x="760" y="520" width="160" height="56" as="geometry"/>
                </mxCell>
                <mxCell id="Dd8_O6OpmOd4A60IJ_7j-1" value="/admin/menus" style="text;strokeColor=none;fillColor=none;spacingLeft=4;spacingRight=4;overflow=hidden;rotatable=0;points=[[0,0.5],[1,0.5]];portConstraint=eastwest;fontSize=12;" parent="Dd8_O6OpmOd4A60IJ_7j-0" vertex="1">
                    <mxGeometry y="26" width="160" height="30" as="geometry"/>
                </mxCell>
                <mxCell id="Dd8_O6OpmOd4A60IJ_7j-2" value="ãã¥ã¼ã¹æ°è¦ä½æ" style="swimlane;fontStyle=0;childLayout=stackLayout;horizontal=1;startSize=26;horizontalStack=0;resizeParent=1;resizeParentMax=0;resizeLast=0;collapsible=1;marginBottom=0;align=center;fontSize=14;" parent="5RBKL91T9zg0o027TH-Y-1" vertex="1">
                    <mxGeometry x="960" y="320" width="160" height="56" as="geometry"/>
                </mxCell>
                <mxCell id="Dd8_O6OpmOd4A60IJ_7j-3" value="/admin/news/add" style="text;strokeColor=none;fillColor=none;spacingLeft=4;spacingRight=4;overflow=hidden;rotatable=0;points=[[0,0.5],[1,0.5]];portConstraint=eastwest;fontSize=12;" parent="Dd8_O6OpmOd4A60IJ_7j-2" vertex="1">
                    <mxGeometry y="26" width="160" height="30" as="geometry"/>
                </mxCell>
                <mxCell id="Dd8_O6OpmOd4A60IJ_7j-4" value="ãã¥ã¼ã¹ç·¨é" style="swimlane;fontStyle=0;childLayout=stackLayout;horizontal=1;startSize=26;horizontalStack=0;resizeParent=1;resizeParentMax=0;resizeLast=0;collapsible=1;marginBottom=0;align=center;fontSize=14;" parent="5RBKL91T9zg0o027TH-Y-1" vertex="1">
                    <mxGeometry x="960" y="400" width="160" height="56" as="geometry"/>
                </mxCell>
                <mxCell id="Dd8_O6OpmOd4A60IJ_7j-5" value="/admin/news/edit" style="text;strokeColor=none;fillColor=none;spacingLeft=4;spacingRight=4;overflow=hidden;rotatable=0;points=[[0,0.5],[1,0.5]];portConstraint=eastwest;fontSize=12;" parent="Dd8_O6OpmOd4A60IJ_7j-4" vertex="1">
                    <mxGeometry y="26" width="160" height="30" as="geometry"/>
                </mxCell>
                <mxCell id="Dd8_O6OpmOd4A60IJ_7j-8" value="ã¡ãã¥ã¼æ°è¦ä½æ" style="swimlane;fontStyle=0;childLayout=stackLayout;horizontal=1;startSize=26;horizontalStack=0;resizeParent=1;resizeParentMax=0;resizeLast=0;collapsible=1;marginBottom=0;align=center;fontSize=14;" parent="5RBKL91T9zg0o027TH-Y-1" vertex="1">
                    <mxGeometry x="960" y="520" width="160" height="56" as="geometry"/>
                </mxCell>
                <mxCell id="Dd8_O6OpmOd4A60IJ_7j-9" value="/admin/menus/add" style="text;strokeColor=none;fillColor=none;spacingLeft=4;spacingRight=4;overflow=hidden;rotatable=0;points=[[0,0.5],[1,0.5]];portConstraint=eastwest;fontSize=12;" parent="Dd8_O6OpmOd4A60IJ_7j-8" vertex="1">
                    <mxGeometry y="26" width="160" height="30" as="geometry"/>
                </mxCell>
                <mxCell id="Dd8_O6OpmOd4A60IJ_7j-10" value="ã¡ãã¥ã¼ç·¨é" style="swimlane;fontStyle=0;childLayout=stackLayout;horizontal=1;startSize=26;horizontalStack=0;resizeParent=1;resizeParentMax=0;resizeLast=0;collapsible=1;marginBottom=0;align=center;fontSize=14;" parent="5RBKL91T9zg0o027TH-Y-1" vertex="1">
                    <mxGeometry x="960" y="600" width="160" height="56" as="geometry"/>
                </mxCell>
                <mxCell id="Dd8_O6OpmOd4A60IJ_7j-11" value="/admin/menus/edit" style="text;strokeColor=none;fillColor=none;spacingLeft=4;spacingRight=4;overflow=hidden;rotatable=0;points=[[0,0.5],[1,0.5]];portConstraint=eastwest;fontSize=12;" parent="Dd8_O6OpmOd4A60IJ_7j-10" vertex="1">
                    <mxGeometry y="26" width="160" height="30" as="geometry"/>
                </mxCell>
                <mxCell id="Dd8_O6OpmOd4A60IJ_7j-12" style="rounded=0;html=1;exitX=0;exitY=0.25;exitDx=0;exitDy=0;entryX=1;entryY=0.25;entryDx=0;entryDy=0;fontSize=10;startArrow=none;startFill=0;endArrow=none;endFill=0;" parent="5RBKL91T9zg0o027TH-Y-1" edge="1">
                    <mxGeometry relative="1" as="geometry">
                        <mxPoint x="520" y="330" as="sourcePoint"/>
                        <mxPoint x="440" y="330" as="targetPoint"/>
                    </mxGeometry>
                </mxCell>
                <mxCell id="Dd8_O6OpmOd4A60IJ_7j-16" value="" style="endArrow=none;html=1;edgeStyle=orthogonalEdgeStyle;exitX=1;exitY=0.25;exitDx=0;exitDy=0;entryX=0;entryY=0.25;entryDx=0;entryDy=0;rounded=0;" parent="5RBKL91T9zg0o027TH-Y-1" source="niDnBnYqPfuyKYtPvyMj-2" target="Dd8_O6OpmOd4A60IJ_7j-0" edge="1">
                    <mxGeometry width="50" height="50" relative="1" as="geometry">
                        <mxPoint x="710" y="530" as="sourcePoint"/>
                        <mxPoint x="760" y="480" as="targetPoint"/>
                    </mxGeometry>
                </mxCell>
                <mxCell id="Dd8_O6OpmOd4A60IJ_7j-17" value="" style="endArrow=none;html=1;rounded=0;exitX=1;exitY=0.25;exitDx=0;exitDy=0;entryX=0;entryY=0.25;entryDx=0;entryDy=0;" parent="5RBKL91T9zg0o027TH-Y-1" source="niDnBnYqPfuyKYtPvyMj-2" target="niDnBnYqPfuyKYtPvyMj-4" edge="1">
                    <mxGeometry width="50" height="50" relative="1" as="geometry">
                        <mxPoint x="710" y="500" as="sourcePoint"/>
                        <mxPoint x="760" y="450" as="targetPoint"/>
                    </mxGeometry>
                </mxCell>
                <mxCell id="Dd8_O6OpmOd4A60IJ_7j-18" value="" style="endArrow=none;html=1;rounded=0;exitX=1;exitY=0.25;exitDx=0;exitDy=0;entryX=0;entryY=0.25;entryDx=0;entryDy=0;edgeStyle=orthogonalEdgeStyle;" parent="5RBKL91T9zg0o027TH-Y-1" source="niDnBnYqPfuyKYtPvyMj-4" target="Dd8_O6OpmOd4A60IJ_7j-4" edge="1">
                    <mxGeometry width="50" height="50" relative="1" as="geometry">
                        <mxPoint x="960" y="520" as="sourcePoint"/>
                        <mxPoint x="1010" y="470" as="targetPoint"/>
                    </mxGeometry>
                </mxCell>
                <mxCell id="Dd8_O6OpmOd4A60IJ_7j-19" value="" style="endArrow=none;html=1;rounded=0;exitX=1;exitY=0.25;exitDx=0;exitDy=0;entryX=0;entryY=0.25;entryDx=0;entryDy=0;" parent="5RBKL91T9zg0o027TH-Y-1" source="niDnBnYqPfuyKYtPvyMj-4" target="Dd8_O6OpmOd4A60IJ_7j-2" edge="1">
                    <mxGeometry width="50" height="50" relative="1" as="geometry">
                        <mxPoint x="960" y="520" as="sourcePoint"/>
                        <mxPoint x="1010" y="470" as="targetPoint"/>
                    </mxGeometry>
                </mxCell>
                <mxCell id="Dd8_O6OpmOd4A60IJ_7j-22" value="" style="endArrow=none;html=1;rounded=0;exitX=1;exitY=0.25;exitDx=0;exitDy=0;entryX=0;entryY=0.25;entryDx=0;entryDy=0;edgeStyle=orthogonalEdgeStyle;" parent="5RBKL91T9zg0o027TH-Y-1" source="Dd8_O6OpmOd4A60IJ_7j-0" target="Dd8_O6OpmOd4A60IJ_7j-10" edge="1">
                    <mxGeometry width="50" height="50" relative="1" as="geometry">
                        <mxPoint x="960" y="520" as="sourcePoint"/>
                        <mxPoint x="1010" y="470" as="targetPoint"/>
                    </mxGeometry>
                </mxCell>
                <mxCell id="Dd8_O6OpmOd4A60IJ_7j-23" value="" style="endArrow=none;html=1;rounded=0;entryX=0;entryY=0.25;entryDx=0;entryDy=0;exitX=1;exitY=0.25;exitDx=0;exitDy=0;" parent="5RBKL91T9zg0o027TH-Y-1" source="Dd8_O6OpmOd4A60IJ_7j-0" target="Dd8_O6OpmOd4A60IJ_7j-8" edge="1">
                    <mxGeometry width="50" height="50" relative="1" as="geometry">
                        <mxPoint x="920" y="530" as="sourcePoint"/>
                        <mxPoint x="970" y="344" as="targetPoint"/>
                    </mxGeometry>
                </mxCell>
                <mxCell id="uVoOdSc6FwwcBly9GbnB-0" value="ã¦ã¼ã¶ã¼ä¸è¦§" style="swimlane;fontStyle=0;childLayout=stackLayout;horizontal=1;startSize=26;horizontalStack=0;resizeParent=1;resizeParentMax=0;resizeLast=0;collapsible=1;marginBottom=0;align=center;fontSize=14;" parent="5RBKL91T9zg0o027TH-Y-1" vertex="1">
                    <mxGeometry x="760" y="680" width="160" height="56" as="geometry"/>
                </mxCell>
                <mxCell id="uVoOdSc6FwwcBly9GbnB-1" value="/admin/users" style="text;strokeColor=none;fillColor=none;spacingLeft=4;spacingRight=4;overflow=hidden;rotatable=0;points=[[0,0.5],[1,0.5]];portConstraint=eastwest;fontSize=12;" parent="uVoOdSc6FwwcBly9GbnB-0" vertex="1">
                    <mxGeometry y="26" width="160" height="30" as="geometry"/>
                </mxCell>
                <mxCell id="uVoOdSc6FwwcBly9GbnB-2" value="ã¦ã¼ã¶ã¼æ°è¦ä½æ" style="swimlane;fontStyle=0;childLayout=stackLayout;horizontal=1;startSize=26;horizontalStack=0;resizeParent=1;resizeParentMax=0;resizeLast=0;collapsible=1;marginBottom=0;align=center;fontSize=14;" parent="5RBKL91T9zg0o027TH-Y-1" vertex="1">
                    <mxGeometry x="960" y="680" width="160" height="56" as="geometry"/>
                </mxCell>
                <mxCell id="uVoOdSc6FwwcBly9GbnB-3" value="/admin/user/add" style="text;strokeColor=none;fillColor=none;spacingLeft=4;spacingRight=4;overflow=hidden;rotatable=0;points=[[0,0.5],[1,0.5]];portConstraint=eastwest;fontSize=12;" parent="uVoOdSc6FwwcBly9GbnB-2" vertex="1">
                    <mxGeometry y="26" width="160" height="30" as="geometry"/>
                </mxCell>
                <mxCell id="uVoOdSc6FwwcBly9GbnB-4" value="ã¦ã¼ã¶ã¼ç·¨é" style="swimlane;fontStyle=0;childLayout=stackLayout;horizontal=1;startSize=26;horizontalStack=0;resizeParent=1;resizeParentMax=0;resizeLast=0;collapsible=1;marginBottom=0;align=center;fontSize=14;" parent="5RBKL91T9zg0o027TH-Y-1" vertex="1">
                    <mxGeometry x="960" y="760" width="160" height="56" as="geometry"/>
                </mxCell>
                <mxCell id="uVoOdSc6FwwcBly9GbnB-5" value="/admin/user/edit" style="text;strokeColor=none;fillColor=none;spacingLeft=4;spacingRight=4;overflow=hidden;rotatable=0;points=[[0,0.5],[1,0.5]];portConstraint=eastwest;fontSize=12;" parent="uVoOdSc6FwwcBly9GbnB-4" vertex="1">
                    <mxGeometry y="26" width="160" height="30" as="geometry"/>
                </mxCell>
                <mxCell id="uVoOdSc6FwwcBly9GbnB-6" value="" style="endArrow=none;html=1;rounded=0;exitX=1;exitY=0.25;exitDx=0;exitDy=0;entryX=0;entryY=0.25;entryDx=0;entryDy=0;edgeStyle=orthogonalEdgeStyle;" parent="5RBKL91T9zg0o027TH-Y-1" source="uVoOdSc6FwwcBly9GbnB-0" target="uVoOdSc6FwwcBly9GbnB-4" edge="1">
                    <mxGeometry width="50" height="50" relative="1" as="geometry">
                        <mxPoint x="960" y="680" as="sourcePoint"/>
                        <mxPoint x="1010" y="630" as="targetPoint"/>
                    </mxGeometry>
                </mxCell>
                <mxCell id="uVoOdSc6FwwcBly9GbnB-7" value="" style="endArrow=none;html=1;rounded=0;entryX=0;entryY=0.25;entryDx=0;entryDy=0;exitX=1;exitY=0.25;exitDx=0;exitDy=0;" parent="5RBKL91T9zg0o027TH-Y-1" source="uVoOdSc6FwwcBly9GbnB-0" target="uVoOdSc6FwwcBly9GbnB-2" edge="1">
                    <mxGeometry width="50" height="50" relative="1" as="geometry">
                        <mxPoint x="920" y="690" as="sourcePoint"/>
                        <mxPoint x="970" y="504" as="targetPoint"/>
                    </mxGeometry>
                </mxCell>
            </root>
        </mxGraphModel>
    </diagram>
</mxfile>